<svg width="99" height="34" fill="none" xmlns="http://www.w3.org/2000/svg"><path d="M22.606 0c-2.474 0-4.527 1.774-4.892 4.066l-.675 6.249 6.017-.683c2.53-.218 4.527-2.292 4.527-4.83C27.555 2.157 25.333 0 22.606 0zM0 19.156c0 4.284 3.57 7.777 8.013 7.777 4.218 0 7.676-3.193 7.986-7.204l1.04-9.414-9.813 1.091C3.15 11.816 0 15.117 0 19.156zM41.697 24.668c.197-7.259-3.852-12.198-10.403-12.198-6.27 0-10.628 4.557-10.628 10.67 0 5.921 3.965 10.86 10.797 10.86 5.792 0 8.857-3.41 10.01-6.467h-5.624c-1.096 1.8-2.755 2.374-4.442 2.374-2.587 0-5.033-1.72-5.343-5.24h15.633zm-10.43-8.35c2.277 0 4.807 1.228 4.92 4.693H26.149c.422-3.465 3.065-4.693 5.117-4.693zM49.598 12.934h-5.426v20.547h5.426V22.785c0-3.247.788-6.085 4.358-6.085 3.065 0 3.656 2.32 3.656 4.966v11.815h5.426v-12.96c0-5.076-2.249-8.05-7.31-8.05-2.643 0-4.92 1.063-6.13 3.165v-2.702zM67.368 12.934h-2.98v3.63h2.98v11.378c0 4.093.9 5.54 5.793 5.54h3.964v-3.793h-1.659c-1.94 0-2.671-.41-2.671-2.51V16.562h4.414v-3.629h-4.414V7.34h-5.427v5.594zM91.802 13.043c-.366-.027-.815-.082-1.18-.082-2.475 0-4.359.983-5.596 3.548v-3.602h-5.342v20.547h5.426V22.676c0-3.848 1.772-4.803 4.443-4.803.787 0 1.462 0 2.249.11v-4.94zM93.573 12.934v20.547H99V12.934h-5.427zm2.643-6.603c-1.462 0-2.67 1.146-2.67 2.592 0 1.419 1.18 2.592 2.67 2.592h.113C97.79 11.515 99 10.37 99 8.923c0-1.419-1.18-2.592-2.671-2.592h-.113z" fill="#1D1D1D"/></svg>